<?xml version="1.0" standalone="no"?>
<!DOCTYPE svg PUBLIC "-//W3C//DTD SVG 20010904//EN"
 "http://www.w3.org/TR/2001/REC-SVG-20010904/DTD/svg10.dtd">
<svg version="1.0" xmlns="http://www.w3.org/2000/svg"
 width="512.000000pt" height="512.000000pt" viewBox="0 0 512.000000 512.000000"
 preserveAspectRatio="xMidYMid meet">
<metadata>
Created by potrace 1.14, written by Peter Selinger 2001-2017
</metadata>
<g transform="translate(0.000000,512.000000) scale(0.100000,-0.100000)"
fill="#000000" stroke="none">
<path d="M2347 3858 c-147 -14 -341 -66 -462 -123 l-55 -26 0 -280 c0 -274 0
-279 20 -279 12 0 31 10 43 21 48 47 205 140 286 170 74 27 99 32 181 32 81 0
103 -3 150 -25 199 -90 233 -389 78 -678 -110 -203 -286 -418 -625 -760 l-183
-185 0 -207 0 -208 750 0 750 0 0 240 0 240 -425 0 c-234 0 -425 1 -425 3 0 2
59 64 132 138 156 160 305 335 388 459 98 146 187 337 205 441 3 18 8 37 12
42 16 25 25 310 12 392 -51 335 -243 538 -554 584 -99 15 -189 18 -278 9z"/>
<path d="M4150 3859 c-25 -4 -64 -9 -86 -12 -90 -13 -379 -104 -411 -130 -10
-7 -13 -75 -13 -278 l0 -269 26 0 c14 0 51 18 83 39 169 115 333 170 488 166
136 -4 192 -20 253 -72 64 -54 90 -173 60 -282 -20 -76 -100 -143 -187 -156
-21 -4 -47 -8 -58 -10 -11 -2 -77 -4 -147 -4 l-128 -1 0 -225 0 -225 108 -1
c295 -1 370 -26 427 -143 23 -46 26 -67 26 -138 -1 -102 -6 -131 -32 -185 -28
-58 -84 -112 -144 -139 -94 -43 -269 -49 -398 -15 -93 24 -265 105 -330 155
-26 20 -58 36 -71 36 -32 0 -32 -8 -26 -313 l5 -238 25 -14 c98 -55 283 -112
425 -131 17 -3 95 -6 175 -8 295 -8 480 50 644 203 149 139 230 355 228 611
-1 109 -10 165 -36 237 -54 151 -185 272 -335 310 -19 5 -36 13 -38 19 -2 6
21 20 52 33 134 56 242 202 287 391 57 239 -5 488 -153 615 -25 22 -44 45 -41
50 3 6 2 7 -3 3 -4 -4 -30 6 -59 22 -79 45 -182 78 -291 96 -64 10 -267 12
-325 3z"/>
<path d="M470 3792 c0 -37 -27 -128 -48 -161 -44 -70 -131 -121 -232 -136 -25
-3 -54 -8 -65 -10 -11 -2 -39 -4 -62 -4 l-43 -1 0 -205 0 -205 200 0 200 0 0
-660 0 -660 -200 0 -200 0 0 -220 0 -220 635 0 635 0 0 220 0 220 -195 0 -195
0 0 1035 0 1035 -215 0 -215 0 0 -28z"/>
</g>
</svg>
